<svg version="1.1" viewBox="0.0 0.0 960.0 540.0" fill="none" stroke="none" stroke-linecap="square" stroke-miterlimit="10" xmlns:xlink="http://www.w3.org/1999/xlink" xmlns="http://www.w3.org/2000/svg"><clipPath id="p.0"><path d="m0 0l960.0 0l0 540.0l-960.0 0l0 -540.0z" clip-rule="nonzero"/></clipPath><g clip-path="url(#p.0)"><defs><radialGradient id="p.1" gradientUnits="userSpaceOnUse" gradientTransform="matrix(33.18815415348502 0.0 0.0 33.18815415348502 0.0 0.0)" spreadMethod="pad" cx="0.0" cy="16.2708657282555" fx="0.0" fy="16.2708657282555" r="33.18815231323242"><stop offset="0.0" stop-color="#b57edc"/><stop offset="1.0" stop-color="#0f0529"/></radialGradient></defs><path fill="url(#p.1)" d="m0 0l960.0 0l0 540.0l-960.0 0z" fill-rule="evenodd"/><g filter="url(#shadowFilter-p.2)"><use xlink:href="#p.2" transform="matrix(1.0 0.0 0.0 1.0 65.0 0.0)"/></g><defs><filter id="shadowFilter-p.2" filterUnits="userSpaceOnUse"><feGaussianBlur in="SourceAlpha" stdDeviation="15.5" result="blur"/><feComponentTransfer in="blur" color-interpolation-filters="sRGB"><feFuncR type="linear" slope="0" intercept="0.90588236"/><feFuncG type="linear" slope="0" intercept="0.8392157"/><feFuncB type="linear" slope="0" intercept="0.9372549"/><feFuncA type="linear" slope="0.99" intercept="0"/></feComponentTransfer></filter></defs><g id="p.2"><path fill="#000000" fill-opacity="0.0" d="m-10.724409 319.38583c223.15202 0 323.62292 -34.35434 446.30402 -68.708664c122.68112 -34.35434 267.57242 -68.708664 535.1448 -68.708664" fill-rule="evenodd"/><path stroke="#dbb6ee" stroke-width="4.0" stroke-linejoin="round" stroke-linecap="butt" d="m-10.724409 319.38583c223.15202 0 323.62292 -34.35434 446.30402 -68.708664c122.68112 -34.35434 267.57242 -68.708664 535.1448 -68.708664" fill-rule="evenodd"/></g><g filter="url(#shadowFilter-p.3)"><use xlink:href="#p.3" transform="matrix(1.0 0.0 0.0 1.0 -58.0 0.0)"/></g><defs><filter id="shadowFilter-p.3" filterUnits="userSpaceOnUse"><feGaussianBlur in="SourceAlpha" stdDeviation="13.0" result="blur"/><feComponentTransfer in="blur" color-interpolation-filters="sRGB"><feFuncR type="linear" slope="0" intercept="0.90588236"/><feFuncG type="linear" slope="0" intercept="0.8392157"/><feFuncB type="linear" slope="0" intercept="0.9372549"/><feFuncA type="linear" slope="1.0" intercept="0"/></feComponentTransfer></filter></defs><g id="p.3"><path fill="#000000" fill-opacity="0.0" d="m-10.724409 266.77167c270.6928 0 419.40137 18.220459 541.3856 36.440918c121.98425 18.22049 217.2442 36.44095 434.4884 36.44095" fill-rule="evenodd"/><path stroke="#dbb6ee" stroke-width="4.0" stroke-linejoin="round" stroke-linecap="butt" d="m-10.724409 266.77167c270.6928 0 419.40137 18.220459 541.3856 36.440918c121.98425 18.22049 217.2442 36.44095 434.4884 36.44095" fill-rule="evenodd"/></g><path fill="#ffffff" d="m50.262466 30.608923l3.1762161 -0.6820507l0.6820526 -3.1762161l0.6820526 3.1762161l3.1762161 0.6820507l-3.1762161 0.6820526l-0.6820526 3.1762142l-0.6820526 -3.1762142z" fill-rule="evenodd"/><path fill="#ffffff" d="m49.041996 99.4462l3.1762161 -0.6820526l0.6820488 -3.1762161l0.6820526 3.1762161l3.1762161 0.6820526l-3.1762161 0.682045l-0.6820526 3.1762161l-0.6820488 -3.1762161z" fill-rule="evenodd"/><path fill="#ffffff" d="m245.86351 58.695538l3.1762238 -0.6820526l0.6820526 -3.1762161l0.6820526 3.1762161l3.1762085 0.6820526l-3.1762085 0.6820526l-0.6820526 3.1762161l-0.6820526 -3.1762161z" fill-rule="evenodd"/><path fill="#ffffff" d="m138.9685 41.036747l3.1762085 -0.6820526l0.6820526 -3.1762161l0.6820526 3.1762161l3.1762238 0.6820526l-3.1762238 0.6820488l-0.6820526 3.1762161l-0.6820526 -3.1762161z" fill-rule="evenodd"/><path fill="#ffffff" d="m148.1181 146.07611l3.1762238 -0.6820526l0.6820526 -3.1762085l0.6820526 3.1762085l3.1762085 0.6820526l-3.1762085 0.6820526l-0.6820526 3.1762238l-0.6820526 -3.1762238z" fill-rule="evenodd"/><path fill="#ffffff" d="m265.09448 112.95801l3.1762085 -0.6820526l0.6820679 -3.1762161l0.68203735 3.1762161l3.176239 0.6820526l-3.176239 0.6820526l-0.68203735 3.1762161l-0.6820679 -3.1762161z" fill-rule="evenodd"/><path fill="#ffffff" d="m47.24147 242.26509l3.1762161 -0.6820526l0.6820526 -3.1762085l0.6820488 3.1762085l3.1762161 0.6820526l-3.1762161 0.6820526l-0.6820488 3.1762085l-0.6820526 -3.1762085z" fill-rule="evenodd"/><path fill="#ffffff" d="m19.015749 290.9449l3.1762142 -0.6820679l0.6820526 -3.1762085l0.6820526 3.1762085l3.1762142 0.6820679l-3.1762142 0.68203735l-0.6820526 3.176239l-0.6820526 -3.176239z" fill-rule="evenodd"/><path fill="#ffffff" d="m260.063 279.937l3.1762085 -0.6820679l0.6820679 -3.1762085l0.68203735 3.1762085l3.176239 0.6820679l-3.176239 0.68203735l-0.68203735 3.176239l-0.6820679 -3.176239z" fill-rule="evenodd"/><path fill="#ffffff" d="m145.53806 346.03674l3.1762238 -0.68203735l0.6820526 -3.176239l0.6820526 3.176239l3.1762085 0.68203735l-3.1762085 0.6820679l-0.6820526 3.1762085l-0.6820526 -3.1762085z" fill-rule="evenodd"/><path fill="#ffffff" d="m157.42783 289.23883l3.1762085 -0.68203735l0.6820526 -3.1762085l0.6820526 3.1762085l3.1762238 0.68203735l-3.1762238 0.6820679l-0.6820526 3.1762085l-0.6820526 -3.1762085z" fill-rule="evenodd"/><path fill="#ffffff" d="m87.32021 313.45932l3.1762161 -0.6820679l0.682045 -3.1762085l0.6820526 3.1762085l3.1762161 0.6820679l-3.1762161 0.68203735l-0.6820526 3.176239l-0.682045 -3.176239z" fill-rule="evenodd"/><path fill="#ffffff" d="m99.01575 370.9449l3.1762161 -0.6820679l0.6820526 -3.1762085l0.6820526 3.1762085l3.1762161 0.6820679l-3.1762161 0.68203735l-0.6820526 3.176239l-0.6820526 -3.176239z" fill-rule="evenodd"/><path fill="#ffffff" d="m38.304462 448.19946l3.1762161 -0.68203735l0.6820526 -3.1762085l0.6820488 3.1762085l3.1762161 0.68203735l-3.1762161 0.6820679l-0.6820488 3.1762085l-0.6820526 -3.1762085z" fill-rule="evenodd"/><path fill="#ffffff" d="m137.82152 486.70078l3.1762238 -0.68203735l0.6820526 -3.1762085l0.6820526 3.1762085l3.1762085 0.68203735l-3.1762085 0.6820679l-0.6820526 3.1762085l-0.6820526 -3.1762085z" fill-rule="evenodd"/><path fill="#ffffff" d="m195.7454 427.3596l3.1762085 -0.6820679l0.6820526 -3.1762085l0.6820526 3.1762085l3.1762238 0.6820679l-3.1762238 0.68203735l-0.6820526 3.1762085l-0.6820526 -3.1762085z" fill-rule="evenodd"/><path fill="#ffffff" d="m256.3622 372.7139l3.1762085 -0.68203735l0.68203735 -3.1762085l0.6820679 3.1762085l3.1762085 0.68203735l-3.1762085 0.6820679l-0.6820679 3.1762085l-0.68203735 -3.1762085z" fill-rule="evenodd"/><path fill="#ffffff" d="m289.5853 484.01575l3.1762085 -0.68203735l0.6820679 -3.176239l0.68203735 3.176239l3.176239 0.68203735l-3.176239 0.6820679l-0.68203735 3.1762085l-0.6820679 -3.1762085z" fill-rule="evenodd"/><path fill="#ffffff" d="m208.71391 519.1942l3.1762085 -0.6820679l0.6820526 -3.1762085l0.6820526 3.1762085l3.1762238 0.6820679l-3.1762238 0.6820679l-0.6820526 3.1762085l-0.6820526 -3.1762085z" fill-rule="evenodd"/><path fill="#ffffff" d="m51.91601 539.69556l3.1762161 -0.6820679l0.6820488 -3.1762085l0.6820526 3.1762085l3.1762161 0.6820679l-3.1762161 0.68200684l-0.6820526 3.1762695l-0.6820488 -3.1762695z" fill-rule="evenodd"/><path fill="#ffffff" d="m428.84515 484.01575l3.1762085 -0.68203735l0.68203735 -3.176239l0.6820679 3.176239l3.1762085 0.68203735l-3.1762085 0.6820679l-0.6820679 3.1762085l-0.68203735 -3.1762085z" fill-rule="evenodd"/><path fill="#ffffff" d="m399.67453 415.46457l3.176239 -0.6820679l0.68203735 -3.1762085l0.6820679 3.1762085l3.1762085 0.6820679l-3.1762085 0.68203735l-0.6820679 3.176239l-0.68203735 -3.176239z" fill-rule="evenodd"/><path fill="#ffffff" d="m363.7139 533.29395l3.176239 -0.68200684l0.68203735 -3.1762695l0.6820679 3.1762695l3.1762085 0.68200684l-3.1762085 0.6820679l-0.6820679 3.1762085l-0.68203735 -3.1762085z" fill-rule="evenodd"/><path fill="#ffffff" d="m350.47244 357.38846l3.1762085 -0.6820679l0.6820679 -3.1762085l0.68203735 3.1762085l3.1762085 0.6820679l-3.1762085 0.68203735l-0.68203735 3.1762085l-0.6820679 -3.1762085z" fill-rule="evenodd"/><path fill="#ffffff" d="m351.8504 275.2152l3.1762085 -0.68203735l0.68203735 -3.1762085l0.6820679 3.1762085l3.1762085 0.68203735l-3.1762085 0.6820679l-0.6820679 3.1762085l-0.68203735 -3.1762085z" fill-rule="evenodd"/><path fill="#ffffff" d="m315.1076 311.32022l3.1762085 -0.6820679l0.6820679 -3.1762085l0.68203735 3.1762085l3.176239 0.6820679l-3.176239 0.68203735l-0.68203735 3.1762085l-0.6820679 -3.1762085z" fill-rule="evenodd"/><path fill="#ffffff" d="m464.53018 321.17584l3.1762085 -0.68203735l0.6820679 -3.1762085l0.68203735 3.1762085l3.1762085 0.68203735l-3.1762085 0.6820679l-0.68203735 3.1762085l-0.6820679 -3.1762085z" fill-rule="evenodd"/><path fill="#ffffff" d="m464.53018 389.39896l3.1762085 -0.6820679l0.6820679 -3.1762085l0.68203735 3.1762085l3.1762085 0.6820679l-3.1762085 0.68203735l-0.68203735 3.176239l-0.6820679 -3.176239z" fill-rule="evenodd"/><path fill="#ffffff" d="m519.2441 461.6719l3.1762085 -0.68203735l0.6820679 -3.1762085l0.6820679 3.1762085l3.1762085 0.68203735l-3.1762085 0.6820679l-0.6820679 3.1762085l-0.6820679 -3.1762085z" fill-rule="evenodd"/><path fill="#ffffff" d="m583.5486 347.12073l3.1762085 -0.68203735l0.68200684 -3.1762085l0.6820679 3.1762085l3.1762085 0.68203735l-3.1762085 0.6820679l-0.6820679 3.1762085l-0.68200684 -3.1762085z" fill-rule="evenodd"/><path fill="#ffffff" d="m612.08136 407.74802l3.1762085 -0.68203735l0.6820679 -3.1762085l0.6820679 3.1762085l3.1762085 0.68203735l-3.1762085 0.6820679l-0.6820679 3.1762085l-0.6820679 -3.1762085z" fill-rule="evenodd"/><path fill="#ffffff" d="m658.36743 461.6719l3.1762085 -0.68203735l0.6820679 -3.1762085l0.6820679 3.1762085l3.1762085 0.68203735l-3.1762085 0.6820679l-0.6820679 3.1762085l-0.6820679 -3.1762085z" fill-rule="evenodd"/><path fill="#ffffff" d="m619.7979 437.41733l3.1762085 -0.6820679l0.6820679 -3.1762085l0.68200684 3.1762085l3.1762695 0.6820679l-3.1762695 0.68203735l-0.68200684 3.176239l-0.6820679 -3.176239z" fill-rule="evenodd"/><path fill="#ffffff" d="m660.08136 357.31235l3.1762085 -0.6820679l0.6820679 -3.1762085l0.6820679 3.1762085l3.1762085 0.6820679l-3.1762085 0.68203735l-0.6820679 3.1762085l-0.6820679 -3.1762085z" fill-rule="evenodd"/><path fill="#ffffff" d="m620.9895 290.9449l3.1762085 -0.6820679l0.6820679 -3.1762085l0.6820679 3.1762085l3.1762085 0.6820679l-3.1762085 0.68203735l-0.6820679 3.176239l-0.6820679 -3.176239z" fill-rule="evenodd"/><path fill="#ffffff" d="m542.4724 276.55643l3.1762695 -0.68203735l0.68200684 -3.176239l0.6820679 3.176239l3.1762085 0.68203735l-3.1762085 0.6820679l-0.6820679 3.1762085l-0.68200684 -3.1762085z" fill-rule="evenodd"/><path fill="#ffffff" d="m716.43567 494.41733l3.1762695 -0.6820679l0.68200684 -3.1762085l0.6820679 3.1762085l3.1762085 0.6820679l-3.1762085 0.68203735l-0.6820679 3.176239l-0.68200684 -3.176239z" fill-rule="evenodd"/><path fill="#ffffff" d="m766.3779 415.46457l3.1762085 -0.6820679l0.6820679 -3.1762085l0.6820679 3.1762085l3.1762085 0.6820679l-3.1762085 0.68203735l-0.6820679 3.176239l-0.6820679 -3.176239z" fill-rule="evenodd"/><path fill="#ffffff" d="m742.95276 359.26773l3.1762085 -0.6820679l0.6820679 -3.1762085l0.6820679 3.1762085l3.1762085 0.6820679l-3.1762085 0.68203735l-0.6820679 3.1762085l-0.6820679 -3.1762085z" fill-rule="evenodd"/><path fill="#ffffff" d="m845.3779 511.4777l3.1762085 -0.6820679l0.6820679 -3.1762085l0.6820679 3.1762085l3.1762085 0.6820679l-3.1762085 0.68203735l-0.6820679 3.1762085l-0.6820679 -3.1762085z" fill-rule="evenodd"/><path fill="#ffffff" d="m865.55383 411.63254l3.1762085 -0.68203735l0.68200684 -3.1762085l0.6820679 3.1762085l3.1762085 0.68203735l-3.1762085 0.6820679l-0.6820679 3.1762085l-0.68200684 -3.1762085z" fill-rule="evenodd"/><path fill="#ffffff" d="m925.6772 464.70865l3.1762085 -0.68203735l0.6820679 -3.1762085l0.68200684 3.1762085l3.1762085 0.68203735l-3.1762085 0.6820679l-0.68200684 3.1762085l-0.6820679 -3.1762085z" fill-rule="evenodd"/><path fill="#ffffff" d="m954.9921 380.43045l3.1762085 -0.6820679l0.6820679 -3.1762085l0.6820679 3.1762085l3.1762085 0.6820679l-3.1762085 0.68203735l-0.6820679 3.176239l-0.6820679 -3.176239z" fill-rule="evenodd"/><path fill="#ffffff" d="m824.77954 351.55118l3.1762085 -0.68203735l0.6820679 -3.176239l0.68200684 3.176239l3.1762085 0.68203735l-3.1762085 0.6820679l-0.68200684 3.1762085l-0.6820679 -3.1762085z" fill-rule="evenodd"/><path fill="#ffffff" d="m906.8373 311.32022l3.1762085 -0.6820679l0.6820679 -3.1762085l0.68200684 3.1762085l3.1762695 0.6820679l-3.1762695 0.68203735l-0.68200684 3.1762085l-0.6820679 -3.1762085z" fill-rule="evenodd"/><path fill="#ffffff" d="m903.2546 349.6719l3.1762085 -0.68203735l0.6820679 -3.1762085l0.6820679 3.1762085l3.1762085 0.68203735l-3.1762085 0.6820679l-0.6820679 3.1762085l-0.6820679 -3.1762085z" fill-rule="evenodd"/><path fill="#ffffff" d="m805.93964 300.5013l3.1762085 -0.68203735l0.6820679 -3.176239l0.6820679 3.176239l3.1762085 0.68203735l-3.1762085 0.68203735l-0.6820679 3.176239l-0.6820679 -3.176239z" fill-rule="evenodd"/><path fill="#ffffff" d="m857.8373 322.24408l3.1762085 -0.68203735l0.6820679 -3.1762085l0.68200684 3.1762085l3.1762695 0.68203735l-3.1762695 0.6820679l-0.68200684 3.1762085l-0.6820679 -3.1762085z" fill-rule="evenodd"/><path fill="#ffffff" d="m723.0551 305.74277l3.1762085 -0.68203735l0.6820679 -3.1762085l0.6820679 3.1762085l3.1762085 0.68203735l-3.1762085 0.6820679l-0.6820679 3.1762085l-0.6820679 -3.1762085z" fill-rule="evenodd"/><path fill="#ffffff" d="m676.3937 284.27298l3.1762695 -0.6820679l0.68200684 -3.1762085l0.6820679 3.1762085l3.1762085 0.6820679l-3.1762085 0.68203735l-0.6820679 3.1762085l-0.68200684 -3.1762085z" fill-rule="evenodd"/><path fill="#ffffff" d="m745.3963 226.12335l3.1762695 -0.68203735l0.68200684 -3.1762238l0.6820679 3.1762238l3.1762085 0.68203735l-3.1762085 0.6820526l-0.6820679 3.1762238l-0.68200684 -3.1762238z" fill-rule="evenodd"/><path fill="#ffffff" d="m685.93964 162.48819l3.1762085 -0.6820526l0.6820679 -3.1762085l0.6820679 3.1762085l3.1762085 0.6820526l-3.1762085 0.6820526l-0.6820679 3.1762085l-0.6820679 -3.1762085z" fill-rule="evenodd"/><path fill="#ffffff" d="m627.51447 197.00262l3.1762085 -0.6820526l0.68200684 -3.1762085l0.6820679 3.1762085l3.1762085 0.6820526l-3.1762085 0.6820526l-0.6820679 3.1762085l-0.68200684 -3.1762085z" fill-rule="evenodd"/><path fill="#ffffff" d="m842.2231 140.17848l3.1762085 -0.6820526l0.6820679 -3.1762238l0.6820679 3.1762238l3.1762085 0.6820526l-3.1762085 0.6820526l-0.6820679 3.1762085l-0.6820679 -3.1762085z" fill-rule="evenodd"/><path fill="#ffffff" d="m873.2703 211.39108l3.1762085 -0.6820526l0.6820679 -3.1762238l0.6820679 3.1762238l3.1762085 0.6820526l-3.1762085 0.6820526l-0.6820679 3.1762085l-0.6820679 -3.1762085z" fill-rule="evenodd"/><path fill="#ffffff" d="m889.79004 228.95801l3.1762085 -0.6820526l0.6820679 -3.1762238l0.68200684 3.1762238l3.1762695 0.6820526l-3.1762695 0.6820526l-0.68200684 3.1762085l-0.6820679 -3.1762085z" fill-rule="evenodd"/><path fill="#ffffff" d="m914.55383 157.75066l3.1762085 -0.6820526l0.68200684 -3.1762085l0.6820679 3.1762085l3.1762085 0.6820526l-3.1762085 0.6820526l-0.6820679 3.1762085l-0.68200684 -3.1762085z" fill-rule="evenodd"/><path fill="#ffffff" d="m782.8898 170.20473l3.1762085 -0.6820526l0.6820679 -3.1762238l0.68200684 3.1762238l3.1762695 0.6820526l-3.1762695 0.6820526l-0.68200684 3.1762085l-0.6820679 -3.1762085z" fill-rule="evenodd"/><path fill="#ffffff" d="m917.96063 11.162729l3.1762085 -0.68205166l0.6820679 -3.1762156l0.6820679 3.1762156l3.1762085 0.68205166l-3.1762085 0.6820526l-0.6820679 3.1762152l-0.6820679 -3.1762152z" fill-rule="evenodd"/><path fill="#ffffff" d="m922.2703 79.38058l3.1762085 -0.6820526l0.6820679 -3.1762161l0.6820679 3.1762161l3.1762085 0.6820526l-3.1762085 0.6820526l-0.6820679 3.1762161l-0.6820679 -3.1762161z" fill-rule="evenodd"/><path fill="#ffffff" d="m952.28345 42.902885l3.1762085 -0.6820488l0.6820679 -3.1762161l0.6820679 3.1762161l3.1762085 0.6820488l-3.1762085 0.6820526l-0.6820679 3.1762161l-0.6820679 -3.1762161z" fill-rule="evenodd"/><path fill="#ffffff" d="m818.7008 26.005249l3.1762085 -0.6820507l0.6820679 -3.1762161l0.68200684 3.1762161l3.1762085 0.6820507l-3.1762085 0.6820526l-0.68200684 3.1762161l-0.6820679 -3.1762161z" fill-rule="evenodd"/><path fill="#ffffff" d="m842.2231 67.59055l3.1762085 -0.6820526l0.6820679 -3.1762161l0.6820679 3.1762161l3.1762085 0.6820526l-3.1762085 0.6820526l-0.6820679 3.1762161l-0.6820679 -3.1762161z" fill-rule="evenodd"/><path fill="#ffffff" d="m728.9816 75.30708l3.1762085 -0.682045l0.6820679 -3.1762161l0.6820679 3.1762161l3.1762085 0.682045l-3.1762085 0.6820526l-0.6820679 3.1762161l-0.6820679 -3.1762161z" fill-rule="evenodd"/><path fill="#ffffff" d="m742.95276 16.937008l3.1762085 -0.6820526l0.6820679 -3.1762152l0.6820679 3.1762152l3.1762085 0.6820526l-3.1762085 0.6820526l-0.6820679 3.1762142l-0.6820679 -3.1762142z" fill-rule="evenodd"/><path fill="#ffffff" d="m785.52496 100.97113l3.1762085 -0.6820526l0.68200684 -3.1762161l0.6820679 3.1762161l3.1762085 0.6820526l-3.1762085 0.6820526l-0.6820679 3.1762161l-0.68200684 -3.1762161z" fill-rule="evenodd"/><path fill="#ffffff" d="m658.36743 108.68767l3.1762085 -0.6820526l0.6820679 -3.1762161l0.6820679 3.1762161l3.1762085 0.6820526l-3.1762085 0.682045l-0.6820679 3.1762161l-0.6820679 -3.1762161z" fill-rule="evenodd"/><path fill="#ffffff" d="m667.7979 39.829395l3.1762085 -0.6820526l0.6820679 -3.1762123l0.68200684 3.1762123l3.1762695 0.6820526l-3.1762695 0.6820526l-0.68200684 3.1762161l-0.6820679 -3.1762161z" fill-rule="evenodd"/><path fill="#ffffff" d="m578.0971 11.162729l3.1762085 -0.68205166l0.6820679 -3.1762156l0.6820679 3.1762156l3.1762085 0.68205166l-3.1762085 0.6820526l-0.6820679 3.1762152l-0.6820679 -3.1762152z" fill-rule="evenodd"/><path fill="#ffffff" d="m592.79004 75.30708l3.1762085 -0.682045l0.6820679 -3.1762161l0.68200684 3.1762161l3.1762695 0.682045l-3.1762695 0.6820526l-0.68200684 3.1762161l-0.6820679 -3.1762161z" fill-rule="evenodd"/><path fill="#ffffff" d="m509.31235 132.46194l3.176178 -0.6820526l0.6820679 -3.1762238l0.6820679 3.1762238l3.1762085 0.6820526l-3.1762085 0.6820526l-0.6820679 3.1762085l-0.6820679 -3.1762085z" fill-rule="evenodd"/><path fill="#ffffff" d="m519.2441 47.545933l3.1762085 -0.6820526l0.6820679 -3.1762161l0.6820679 3.1762161l3.1762085 0.6820526l-3.1762085 0.6820526l-0.6820679 3.1762123l-0.6820679 -3.1762123z" fill-rule="evenodd"/><path fill="#ffffff" d="m467.6824 88.48294l3.176239 -0.6820526l0.68203735 -3.1762161l0.6820679 3.1762161l3.1762085 0.6820526l-3.1762085 0.6820526l-0.6820679 3.1762161l-0.68203735 -3.1762161z" fill-rule="evenodd"/><path fill="#ffffff" d="m391.958 26.005249l3.1762085 -0.6820507l0.6820679 -3.1762161l0.68203735 3.1762161l3.1762085 0.6820507l-3.1762085 0.6820526l-0.68203735 3.1762161l-0.6820679 -3.1762161z" fill-rule="evenodd"/><path fill="#ffffff" d="m349.20996 73.59843l3.176239 -0.6820526l0.68203735 -3.1762161l0.6820679 3.1762161l3.1762085 0.6820526l-3.1762085 0.6820526l-0.6820679 3.1762161l-0.68203735 -3.1762161z" fill-rule="evenodd"/><path fill="#ffffff" d="m395.23883 135.81364l3.176239 -0.6820526l0.68203735 -3.1762085l0.6820679 3.1762085l3.1762085 0.6820526l-3.1762085 0.6820526l-0.6820679 3.1762238l-0.68203735 -3.1762238z" fill-rule="evenodd"/><path fill="#ffffff" d="m312.021 174.7874l3.1762085 -0.6820526l0.6820679 -3.1762085l0.68203735 3.1762085l3.1762085 0.6820526l-3.1762085 0.6820526l-0.68203735 3.1762238l-0.6820679 -3.1762238z" fill-rule="evenodd"/><path fill="#ffffff" d="m287.02887 3.9317586l3.1762085 -0.6820519l0.6820679 -3.176216l0.68203735 3.176216l3.1762085 0.6820519l-3.1762085 0.6820519l-0.68203735 3.1762156l-0.6820679 -3.1762156z" fill-rule="evenodd"/><path fill="#ffffff" d="m223.91077 162.48819l3.1762085 -0.6820526l0.6820526 -3.1762085l0.6820526 3.1762085l3.1762238 0.6820526l-3.1762238 0.6820526l-0.6820526 3.1762085l-0.6820526 -3.1762085z" fill-rule="evenodd"/><path fill="#ffffff" d="m220.34383 226.94489l3.1762238 -0.6820526l0.6820526 -3.1762238l0.6820526 3.1762238l3.1762085 0.6820526l-3.1762085 0.6820526l-0.6820526 3.1762085l-0.6820526 -3.1762085z" fill-rule="evenodd"/><path fill="#ffffff" d="m424.60104 236.67455l3.1762085 -0.6820526l0.6820679 -3.1762238l0.68203735 3.1762238l3.176239 0.6820526l-3.176239 0.6820526l-0.68203735 3.1762085l-0.6820679 -3.1762085z" fill-rule="evenodd"/><path fill="#ffffff" d="m488.937 186.3412l3.1762085 -0.6820526l0.6820679 -3.1762085l0.68203735 3.1762085l3.1762085 0.6820526l-3.1762085 0.6820526l-0.68203735 3.1762238l-0.6820679 -3.1762238z" fill-rule="evenodd"/><path fill="#ffffff" d="m528.81104 225.23622l3.1762085 -0.6820526l0.6820679 -3.1762085l0.68200684 3.1762085l3.1762695 0.6820526l-3.1762695 0.6820526l-0.68200684 3.1762085l-0.6820679 -3.1762085z" fill-rule="evenodd"/><g filter="url(#shadowFilter-p.4)"><use xlink:href="#p.4" transform="matrix(1.0 0.0 0.0 1.0 65.0 0.0)"/></g><defs><filter id="shadowFilter-p.4" filterUnits="userSpaceOnUse"><feGaussianBlur in="SourceAlpha" stdDeviation="15.5" result="blur"/><feComponentTransfer in="blur" color-interpolation-filters="sRGB"><feFuncR type="linear" slope="0" intercept="0.90588236"/><feFuncG type="linear" slope="0" intercept="0.8392157"/><feFuncB type="linear" slope="0" intercept="0.9372549"/><feFuncA type="linear" slope="0.99" intercept="0"/></feComponentTransfer></filter></defs><g id="p.4"><path fill="#000000" fill-opacity="0.0" d="m-10.724409 319.37726c223.15202 0 323.62292 -34.35434 446.30402 -68.70868c122.68112 -34.354324 267.57242 -68.708664 535.1448 -68.708664" fill-rule="evenodd"/><path stroke="#e7d6ef" stroke-width="2.0" stroke-linejoin="round" stroke-linecap="butt" d="m-10.724409 319.37726c223.15202 0 323.62292 -34.35434 446.30402 -68.70868c122.68112 -34.354324 267.57242 -68.708664 535.1448 -68.708664" fill-rule="evenodd"/></g><g filter="url(#shadowFilter-p.5)"><use xlink:href="#p.5" transform="matrix(1.0 0.0 0.0 1.0 -58.0 0.0)"/></g><defs><filter id="shadowFilter-p.5" filterUnits="userSpaceOnUse"><feGaussianBlur in="SourceAlpha" stdDeviation="13.0" result="blur"/><feComponentTransfer in="blur" color-interpolation-filters="sRGB"><feFuncR type="linear" slope="0" intercept="0.90588236"/><feFuncG type="linear" slope="0" intercept="0.8392157"/><feFuncB type="linear" slope="0" intercept="0.9372549"/><feFuncA type="linear" slope="1.0" intercept="0"/></feComponentTransfer></filter></defs><g id="p.5"><path fill="#000000" fill-opacity="0.0" d="m-7.937008 267.06534c270.6928 0 419.40137 18.220459 541.3856 36.44095c121.98425 18.220459 217.2442 36.44095 434.4884 36.44095" fill-rule="evenodd"/><path stroke="#e7d6ef" stroke-width="3.0" stroke-linejoin="round" stroke-linecap="butt" d="m-7.937008 267.06534c270.6928 0 419.40137 18.220459 541.3856 36.44095c121.98425 18.220459 217.2442 36.44095 434.4884 36.44095" fill-rule="evenodd"/></g></g></svg>