<svg version="1.1" viewBox="0.0 0.0 1080.0 1080.0" fill="none" stroke="none" stroke-linecap="square" stroke-miterlimit="10" xmlns:xlink="http://www.w3.org/1999/xlink" xmlns="http://www.w3.org/2000/svg"><clipPath id="p.0"><path d="m0 0l1080.0 0l0 1080.0l-1080.0 0l0 -1080.0z" clip-rule="nonzero"/></clipPath><g clip-path="url(#p.0)"><path fill="#000000" fill-opacity="0.0" d="m0 0l1080.0 0l0 1080.0l-1080.0 0z" fill-rule="evenodd"/><path fill="#000000" fill-opacity="0.0" d="m-177.69292 -77.73753l703.81104 0l0 665.7953l-703.81104 0z" fill-rule="evenodd"/><path fill="#0f0529" d="m79.27351 443.26248q-11.718735 0 -19.453106 -8.0q-7.734375 -8.0 -7.734375 -19.203125q0 -11.734375 7.46875 -19.203125l151.45311 -177.06252q16.0 -18.65625 24.796875 -35.1875q8.8125 -16.546875 8.8125 -31.46875q0 -23.46875 -8.0 -40.53125q-8.0 -17.078125 -22.9375 -26.40625q-14.9375 -9.328125 -35.734375 -9.328125q-20.265625 0 -36.53125 10.40625q-16.265625 10.390625 -25.609375 27.71875q-9.328125 17.328125 -9.328125 38.140625q0 10.65625 -7.734375 18.65625q-7.734375 8.0 -19.46875 8.0q-11.187485 0 -19.18748 -8.0q-8.0 -8.0 -8.0 -18.65625q0 -36.265625 16.531246 -64.796875q16.531235 -28.546875 45.062485 -45.078125q28.53125 -16.53125 64.265625 -16.53125q36.265625 0 62.921875 15.46875q26.67189 15.46875 41.343765 43.734375q14.671875 28.265625 14.671875 67.203125q0 17.0625 -7.203125 34.671875q-7.203125 17.59375 -18.140625 33.59375q-10.921875 16.0 -22.125015 28.796875l-122.140625 138.65627l149.34377 0q11.734375 0 19.734375 8.28125q8.0 8.265625 8.0 18.921875q0 11.203125 -8.0 19.203125q-8.0 8.0 -19.734375 8.0l-197.34377 0z" fill-rule="nonzero"/><path fill="#0f0529" d="m575.3344 -339.68076c180.99573 222.21573 219.35211 528.2198 98.80194 788.23315c-120.55017 260.01337 -378.87888 428.4651 -665.42664 433.91327c-286.54773 5.448242 -551.093 -153.06195 -681.43994 -408.3049l123.03143 -62.829376c106.31091 208.17615 322.0741 337.45703 555.7824 333.0135c233.70833 -4.4436035 444.4012 -141.83282 542.7219 -353.8997c98.32074 -212.06688 67.03723 -461.6438 -80.582855 -642.88293z" fill-rule="evenodd"/></g></svg>