<svg version="1.1" viewBox="0.0 0.0 1080.0 1080.0" fill="none" stroke="none" stroke-linecap="square" stroke-miterlimit="10" xmlns:xlink="http://www.w3.org/1999/xlink" xmlns="http://www.w3.org/2000/svg"><clipPath id="p.0"><path d="m0 0l1080.0 0l0 1080.0l-1080.0 0l0 -1080.0z" clip-rule="nonzero"/></clipPath><g clip-path="url(#p.0)"><path fill="#000000" fill-opacity="0.0" d="m0 0l1080.0 0l0 1080.0l-1080.0 0z" fill-rule="evenodd"/><path fill="#000000" fill-opacity="0.0" d="m-177.69292 -77.73753l703.81104 0l0 665.7953l-703.81104 0z" fill-rule="evenodd"/><path fill="#0f0529" d="m197.9449 443.26248q-10.671875 0 -18.671875 -8.0q-8.0 -8.0 -8.0 -19.203125l0 -325.32812l-38.921875 16.53125q-9.078125 3.734375 -17.078125 3.734375q-11.71875 0 -19.453125 -7.46875q-7.734375 -7.46875 -7.734375 -19.203125q0 -8.53125 4.265625 -15.453125q4.265625 -6.9375 13.328125 -10.140625l83.203125 -29.859375q2.65625 -1.078125 5.328125 -1.609375q2.671875 -0.53125 4.796875 -0.53125q12.265625 0 19.46875 7.734375q7.203125 7.734375 7.203125 20.0l0 361.59375q0 11.203125 -8.0 19.203125q-8.0 8.0 -19.734375 8.0z" fill-rule="nonzero"/><path fill="#0f0529" d="m575.3344 -339.68076c180.99573 222.21573 219.35211 528.2198 98.80194 788.23315c-120.55017 260.01337 -378.87888 428.4651 -665.42664 433.91327c-286.54773 5.448242 -551.093 -153.06195 -681.43994 -408.3049l123.03143 -62.829376c106.31091 208.17615 322.0741 337.45703 555.7824 333.0135c233.70833 -4.4436035 444.4012 -141.83282 542.7219 -353.8997c98.32074 -212.06688 67.03723 -461.6438 -80.582855 -642.88293z" fill-rule="evenodd"/></g></svg>