<svg version="1.1" viewBox="0.0 0.0 1002.8031496062993 324.2992125984252" fill="none" stroke="none" stroke-linecap="square" stroke-miterlimit="10" xmlns:xlink="http://www.w3.org/1999/xlink" xmlns="http://www.w3.org/2000/svg"><clipPath id="p.0"><path d="m0 0l1002.80316 0l0 324.29922l-1002.80316 0l0 -324.29922z" clip-rule="nonzero"/></clipPath><g clip-path="url(#p.0)"><path fill="#000000" fill-opacity="0.0" d="m0 0l1002.80316 0l0 324.29922l-1002.80316 0z" fill-rule="evenodd"/><path fill="#924dbf" d="m0 54.21631c0 -29.94284 24.273468 -54.21631 54.21631 -54.21631l892.8587 0c14.379089 0 28.16919 5.712059 38.33673 15.879589c10.1675415 10.16753 15.879578 23.95766 15.879578 38.33672l0 216.85873c0 29.94284 -24.273438 54.21631 -54.21631 54.21631l-892.8587 0c-29.94284 0 -54.21631 -24.273468 -54.21631 -54.21631z" fill-rule="evenodd"/><path stroke="#000000" stroke-width="1.041994750656168" stroke-linejoin="round" stroke-linecap="butt" d="m0 54.21631c0 -29.94284 24.273468 -54.21631 54.21631 -54.21631l892.8587 0c14.379089 0 28.16919 5.712059 38.33673 15.879589c10.1675415 10.16753 15.879578 23.95766 15.879578 38.33672l0 216.85873c0 29.94284 -24.273438 54.21631 -54.21631 54.21631l-892.8587 0c-29.94284 0 -54.21631 -24.273468 -54.21631 -54.21631z" fill-rule="evenodd"/><path fill="#fff0ff" d="m126.46084 136.55876q-7.125 0 -13.578125 -2.21875q-6.453125 -2.234375 -11.234375 -6.234375q-4.78125 -4.0 -7.015625 -9.234375q-1.109375 -2.328125 0.0625 -4.328125q1.171875 -2.015625 3.953125 -2.5625q2.0 -0.453125 3.9375 0.609375q1.953125 1.046875 2.953125 3.171875q1.34375 2.78125 4.390625 5.125q3.0625 2.328125 7.40625 3.78125q4.34375 1.4375 9.125 1.4375q5.3437424 0 9.843742 -1.671875q4.5 -1.671875 7.28125 -4.84375q2.78125 -3.171875 2.78125 -7.84375q0 -5.890625 -4.625 -10.5625q-4.609375 -4.671875 -15.171867 -5.78125q-13.796875 -1.34375 -21.703125 -8.125q-7.890625 -6.78125 -7.890625 -16.796875q0 -7.343754 4.109375 -12.453129q4.125 -5.125 11.1875 -7.796875q7.0625 -2.671875 15.734367 -2.671875q6.796875 0 11.859375 1.890625q5.0625 1.890625 8.84375 5.234375q3.78125 3.328125 6.5625 7.890625q1.5625 2.4531288 1.28125 4.625004q-0.28125 2.171875 -2.171875 3.390625q-2.109375 1.328125 -4.5625 0.5625q-2.453125 -0.78125 -3.671875 -2.890625q-1.78125 -3.234375 -4.34375 -5.453129q-2.546875 -2.234375 -6.0 -3.515625q-3.453125 -1.28125 -8.124992 -1.28125q-8.234375 -0.109375 -13.796875 3.0625q-5.5625 3.1718788 -5.5625 9.734379q0 3.34375 1.71875 6.40625q1.734375 3.046875 6.34375 5.28125q4.625 2.21875 13.296867 3.109375q13.25 1.34375 20.640625 8.078125q7.390625 6.71875 7.390625 17.734375q0 6.34375 -2.609375 11.015625q-2.609375 4.671875 -7.015625 7.84375q-4.390625 3.171875 -10.015625 4.734375q-5.609375 1.546875 -11.609367 1.546875zm76.430565 -0.671875q-9.234375 0 -16.421875 -3.9375q-7.171875 -3.953125 -11.234375 -10.90625q-4.0625 -6.953125 -4.0625 -15.96875q0 -9.125 3.84375 -16.078125q3.84375 -6.953125 10.625 -10.890625q6.78125 -3.953125 15.578125 -3.953125q8.671875 0 14.90625 3.84375q6.234375 3.828125 9.515625 10.5625q3.28125 6.734375 3.28125 15.515625q0 2.109375 -1.453125 3.5q-1.4375 1.390625 -3.671875 1.390625l-44.828125 0l0 -8.890625l44.5 0l-4.5625 3.109375q-0.109375 -5.5625 -2.234375 -9.953125q-2.109375 -4.390625 -6.0 -6.953125q-3.890625 -2.5625 -9.453125 -2.5625q-6.34375 0 -10.859375 2.78125q-4.5 2.78125 -6.84375 7.625q-2.328125 4.84375 -2.328125 10.953125q0 6.125 2.78125 10.90625q2.78125 4.78125 7.671875 7.5625q4.90625 2.78125 11.25 2.78125q3.4375 0 7.046875 -1.28125q3.625 -1.28125 5.859375 -2.9375q1.65625 -1.234375 3.609375 -1.28125q1.953125 -0.0625 3.390625 1.15625q1.890625 1.671875 2.0 3.6875q0.109375 2.0 -1.78125 3.4375q-3.78125 3.0 -9.40625 4.890625q-5.609375 1.890625 -10.71875 1.890625zm45.94557 -38.484375q0 -6.671875 3.28125 -11.953125q3.28125 -5.296875 8.84375 -8.40625q5.5625 -3.109375 12.2344055 -3.109375q6.671875 0 9.953125 2.171875q3.28125 2.15625 2.5 5.171875q-0.328125 1.546875 -1.28125 2.390625q-0.9375 0.828125 -2.171875 1.0625q-1.21875 0.21875 -2.65625 -0.125q-7.125 -1.4375 -12.7969055 -0.21875q-5.671875 1.21875 -8.953125 4.5625q-3.28125 3.328125 -3.28125 8.453125l-5.671875 0zm0.109375 38.046875q-2.671875 0 -4.125 -1.390625q-1.4375 -1.390625 -1.4375 -4.171875l0 -49.734375q0 -2.671875 1.4375 -4.109375q1.453125 -1.453125 4.125 -1.453125q2.78125 0 4.171875 1.390625q1.390625 1.390625 1.390625 4.171875l0 49.734375q0 2.671875 -1.390625 4.125q-1.390625 1.4375 -4.171875 1.4375zm55.286224 0q-2.453125 0 -4.0625 -1.609375q-1.609375 -1.609375 -1.609375 -4.0625l0 -49.515625q0 -2.546875 1.609375 -4.109375q1.609375 -1.5625 4.0625 -1.5625q2.5625 0 4.109375 1.5625q1.5625 1.5625 1.5625 4.109375l0 49.515625q0 2.453125 -1.5625 4.0625q-1.546875 1.609375 -4.109375 1.609375zm0 -70.75q-3.0 0 -5.171875 -2.1718788q-2.171875 -2.171875 -2.171875 -5.171875q0 -3.0 2.171875 -5.171875q2.171875 -2.171875 5.171875 -2.171875q3.0 0 5.171875 2.171875q2.171875 2.171875 2.171875 5.171875q0 3.0 -2.171875 5.171875q-2.171875 2.1718788 -5.171875 2.1718788zm55.409973 71.1875q-9.234375 0 -16.421875 -3.9375q-7.171875 -3.953125 -11.234375 -10.90625q-4.0625 -6.953125 -4.0625 -15.96875q0 -9.125 3.84375 -16.078125q3.84375 -6.953125 10.625 -10.890625q6.78125 -3.953125 15.578125 -3.953125q8.671875 0 14.90625 3.84375q6.234375 3.828125 9.515625 10.5625q3.28125 6.734375 3.28125 15.515625q0 2.109375 -1.453125 3.5q-1.4375 1.390625 -3.671875 1.390625l-44.828125 0l0 -8.890625l44.5 0l-4.5625 3.109375q-0.109375 -5.5625 -2.234375 -9.953125q-2.109375 -4.390625 -6.0 -6.953125q-3.890625 -2.5625 -9.453125 -2.5625q-6.34375 0 -10.859375 2.78125q-4.5 2.78125 -6.84375 7.625q-2.328125 4.84375 -2.328125 10.953125q0 6.125 2.78125 10.90625q2.78125 4.78125 7.671875 7.5625q4.90625 2.78125 11.25 2.78125q3.4375 0 7.046875 -1.28125q3.625 -1.28125 5.859375 -2.9375q1.65625 -1.234375 3.609375 -1.28125q1.953125 -0.0625 3.390625 1.15625q1.890625 1.671875 2.0 3.6875q0.109375 2.0 -1.78125 3.4375q-3.78125 3.0 -9.40625 4.890625q-5.609375 1.890625 -10.71875 1.890625zm62.633057 0q-7.796875 0 -14.421875 -2.390625q-6.609375 -2.390625 -10.28125 -6.0625q-1.671875 -1.78125 -1.390625 -4.046875q0.28125 -2.28125 2.171875 -3.734375q2.21875 -1.78125 4.390625 -1.5q2.171875 0.28125 3.734375 1.9375q1.890625 2.125 6.0625 3.96875q4.171875 1.828125 9.28125 1.828125q6.453125 0 9.84375 -2.109375q3.390625 -2.125 3.515625 -5.453125q0.109375 -3.34375 -3.171875 -5.78125q-3.28125 -2.453125 -11.96875 -4.015625q-11.234375 -2.21875 -16.296875 -6.671875q-5.0625 -4.453125 -5.0625 -10.90625q0 -5.671875 3.328125 -9.390625q3.34375 -3.734375 8.578125 -5.5625q5.234375 -1.84375 10.90625 -1.84375q7.34375 0 13.015625 2.34375q5.671875 2.328125 9.015625 6.4375q1.546875 1.78125 1.4375 3.734375q-0.109375 1.9375 -1.890625 3.28125q-1.78125 1.21875 -4.234375 0.78125q-2.4375 -0.453125 -4.109375 -2.0q-2.78125 -2.671875 -6.015625 -3.671875q-3.21875 -1.0 -7.4375 -1.0q-4.90625 0 -8.296875 1.671875q-3.390625 1.65625 -3.390625 4.890625q0 2.0 1.046875 3.609375q1.0625 1.609375 4.171875 2.890625q3.125 1.28125 9.125 2.5q8.34375 1.671875 13.1875 4.234375q4.84375 2.5625 6.953125 5.953125q2.109375 3.390625 2.109375 7.84375q0 5.109375 -2.71875 9.234375q-2.71875 4.109375 -8.015625 6.5625q-5.28125 2.4375 -13.171875 2.4375zm97.67679 -0.4375q-2.453125 0 -4.125 -1.671875q-1.671875 -1.671875 -1.671875 -4.109375l0 -81.109375l11.578125 0l0 81.109375q0 2.4375 -1.671875 4.109375q-1.671875 1.671875 -4.109375 1.671875zm-29.8125 -76.203125q-2.34375 0 -3.84375 -1.5q-1.5 -1.5 -1.5 -3.84375q0 -2.328125 1.5 -3.828125q1.5 -1.515625 3.84375 -1.515625l59.515625 0q2.328125 0 3.828125 1.515625q1.515625 1.5 1.515625 3.828125q0 2.34375 -1.515625 3.84375q-1.5 1.5 -3.828125 1.5l-59.515625 0zm66.41376 38.156254q0 -6.671875 3.28125 -11.953125q3.28125 -5.296875 8.84375 -8.40625q5.5625 -3.109375 12.234375 -3.109375q6.671875 0 9.953125 2.171875q3.28125 2.15625 2.5 5.171875q-0.328125 1.546875 -1.28125 2.390625q-0.9375 0.828125 -2.171875 1.0625q-1.21875 0.21875 -2.65625 -0.125q-7.125 -1.4375 -12.796875 -0.21875q-5.671875 1.21875 -8.953125 4.5625q-3.28125 3.328125 -3.28125 8.453125l-5.671875 0zm0.109375 38.046875q-2.671875 0 -4.125 -1.390625q-1.4375 -1.390625 -1.4375 -4.171875l0 -49.734375q0 -2.671875 1.4375 -4.109375q1.453125 -1.453125 4.125 -1.453125q2.78125 0 4.171875 1.390625q1.390625 1.390625 1.390625 4.171875l0 49.734375q0 2.671875 -1.390625 4.125q-1.390625 1.4375 -4.171875 1.4375zm69.414185 0.4375q-8.125 0 -14.578125 -4.046875q-6.453125 -4.0625 -10.1875 -11.015625q-3.71875 -6.953125 -3.71875 -15.75q0 -8.78125 4.0625 -15.78125q4.0625 -7.015625 11.015625 -11.078125q6.953125 -4.0625 15.640625 -4.0625q8.671875 0 15.5625 4.0625q6.90625 4.0625 10.96875 11.078125q4.0625 7.0 4.0625 15.78125l-4.34375 0q0 8.796875 -3.734375 15.75q-3.71875 6.953125 -10.171875 11.015625q-6.453125 4.046875 -14.578125 4.046875zm2.234375 -10.0q5.671875 0 10.109375 -2.71875q4.453125 -2.734375 7.015625 -7.453125q2.5625 -4.734375 2.5625 -10.640625q0 -6.0 -2.5625 -10.71875q-2.5625 -4.734375 -7.015625 -7.453125q-4.4375 -2.734375 -10.109375 -2.734375q-5.5625 0 -10.078125 2.734375q-4.5 2.71875 -7.125 7.453125q-2.609375 4.71875 -2.609375 10.71875q0 5.90625 2.609375 10.640625q2.625 4.71875 7.125 7.453125q4.515625 2.71875 10.078125 2.71875zm24.90625 9.671875q-2.4375 0 -4.0625 -1.609375q-1.609375 -1.609375 -1.609375 -4.0625l0 -17.015625l2.125 -11.796875l9.234375 4.0l0 24.8125q0 2.453125 -1.625 4.0625q-1.609375 1.609375 -4.0625 1.609375zm50.18744 0.328125q-8.90625 0 -15.859375 -4.046875q-6.953125 -4.0625 -10.90625 -11.015625q-3.953125 -6.953125 -3.953125 -15.75q0 -9.0 3.890625 -16.015625q3.90625 -7.015625 10.6875 -10.953125q6.78125 -3.953125 15.578125 -3.953125q6.5625 0 12.015625 2.5q5.453125 2.5 9.78125 7.515625q1.5625 1.78125 1.109375 3.671875q-0.4375 1.890625 -2.4375 3.328125q-1.5625 1.109375 -3.453125 0.734375q-1.890625 -0.390625 -3.4375 -1.953125q-5.453125 -5.78125 -13.578125 -5.78125q-5.671875 0 -10.015625 2.609375q-4.34375 2.609375 -6.796875 7.28125q-2.4375 4.671875 -2.4375 11.015625q0 6.015625 2.5 10.6875q2.515625 4.671875 6.953125 7.40625q4.453125 2.71875 10.359375 2.71875q3.890625 0 6.828125 -0.9375q2.953125 -0.953125 5.40625 -2.96875q1.78125 -1.4375 3.671875 -1.59375q1.890625 -0.171875 3.328125 1.046875q1.890625 1.5625 2.109375 3.515625q0.234375 1.9375 -1.328125 3.484375q-8.0 7.453125 -20.015625 7.453125zm49.93933 -22.6875l-6.890625 -7.5625l34.15625 -30.484375q1.671875 -1.5625 3.71875 -1.4375q2.0625 0.109375 3.515625 1.765625q1.546875 1.671875 1.4375 3.671875q-0.109375 2.0 -1.78125 3.5625l-34.15625 30.484375zm-5.21875 22.25q-2.453125 0 -3.953125 -1.5q-1.5 -1.5 -1.5 -3.953125l0 -75.984375q0 -2.4375 1.5 -3.9375q1.5 -1.515625 3.953125 -1.515625q2.4375 0 3.9375 1.515625q1.515625 1.5 1.515625 3.9375l0 75.984375q0 2.453125 -1.515625 3.953125q-1.5 1.5 -3.9375 1.5zm39.71875 -0.5625q-1.78125 1.453125 -3.953125 1.28125q-2.171875 -0.15625 -3.625 -1.9375l-22.578125 -27.921875l7.78125 -7.34375l23.140625 28.46875q1.453125 1.78125 1.28125 3.84375q-0.15625 2.0625 -2.046875 3.609375zm41.1604 1.0q-9.234375 0 -16.421875 -3.9375q-7.171875 -3.953125 -11.234375 -10.90625q-4.0625 -6.953125 -4.0625 -15.96875q0 -9.125 3.84375 -16.078125q3.84375 -6.953125 10.625 -10.890625q6.78125 -3.953125 15.578125 -3.953125q8.671875 0 14.90625 3.84375q6.234375 3.828125 9.515625 10.5625q3.28125 6.734375 3.28125 15.515625q0 2.109375 -1.453125 3.5q-1.4375 1.390625 -3.671875 1.390625l-44.828125 0l0 -8.890625l44.5 0l-4.5625 3.109375q-0.109375 -5.5625 -2.234375 -9.953125q-2.109375 -4.390625 -6.0 -6.953125q-3.890625 -2.5625 -9.453125 -2.5625q-6.34375 0 -10.859375 2.78125q-4.5 2.78125 -6.84375 7.625q-2.328125 4.84375 -2.328125 10.953125q0 6.125 2.78125 10.90625q2.78125 4.78125 7.671875 7.5625q4.90625 2.78125 11.25 2.78125q3.4375 0 7.046875 -1.28125q3.625 -1.28125 5.859375 -2.9375q1.65625 -1.234375 3.609375 -1.28125q1.953125 -0.0625 3.390625 1.15625q1.890625 1.671875 2.0 3.6875q0.109375 2.0 -1.78125 3.4375q-3.78125 3.0 -9.40625 4.890625q-5.609375 1.890625 -10.71875 1.890625zm45.945557 -38.484375q0 -6.671875 3.28125 -11.953125q3.28125 -5.296875 8.84375 -8.40625q5.5625 -3.109375 12.234375 -3.109375q6.671875 0 9.953125 2.171875q3.28125 2.15625 2.5 5.171875q-0.328125 1.546875 -1.28125 2.390625q-0.9375 0.828125 -2.171875 1.0625q-1.21875 0.21875 -2.65625 -0.125q-7.125 -1.4375 -12.796875 -0.21875q-5.671875 1.21875 -8.953125 4.5625q-3.28125 3.328125 -3.28125 8.453125l-5.671875 0zm0.109375 38.046875q-2.671875 0 -4.125 -1.390625q-1.4375 -1.390625 -1.4375 -4.171875l0 -49.734375q0 -2.671875 1.4375 -4.109375q1.453125 -1.453125 4.125 -1.453125q2.78125 0 4.171875 1.390625q1.390625 1.390625 1.390625 4.171875l0 49.734375q0 2.671875 -1.390625 4.125q-1.390625 1.4375 -4.171875 1.4375z" fill-rule="nonzero"/><path fill="#fff0ff" d="m116.34069 295.48065q-1.78125 0 -3.0625 -0.84375q-1.28125 -0.828125 -2.28125 -2.9375q-6.234375 -13.234375 -9.40625 -26.359375q-3.171875 -13.14064 -3.171875 -26.375015q0 -13.234375 3.109375 -26.359375q3.125 -13.125 9.46875 -26.03125q1.671875 -3.90625 5.34375 -3.90625q2.4375 0 4.046875 1.734375q1.625 1.71875 1.625 4.171875q-0.109375 1.78125 -0.78125 2.890625q-11.6875 23.6875 -11.6875 47.609375q0 11.796875 3.0625 23.92189q3.0625 12.125 8.734375 23.921875q0.671875 1.328125 0.671875 2.78125q0 2.4375 -1.5625 4.109375q-1.5625 1.671875 -4.109375 1.671875zm38.152473 -26.03125q-2.0 0 -3.5625 -1.21875q-1.5625 -1.234375 -2.21875 -3.34375l-22.359367 -74.312515q-1.125 -3.671875 0.15625 -5.84375q1.28125 -2.171875 4.1718674 -2.171875q1.890625 0 3.453125 1.0625q1.5625 1.0625 2.21875 3.28125l19.46875 67.859375l-2.4375 0l18.015625 -67.1875q0.453125 -1.671875 2.0 -2.78125q1.5625 -1.125 3.5625 -1.125q1.78125 0 3.390625 0.953125q1.625 0.953125 2.0625 2.84375l18.140625 67.296875l-2.234375 0l19.578125 -68.421875q1.125 -3.78125 5.671875 -3.78125q3.125 0 4.015625 2.390625q0.890625 2.390625 0 5.625l-22.359375 74.20314q-0.78125 2.109375 -2.28125 3.390625q-1.5 1.28125 -3.515625 1.28125q-2.109375 0 -3.609375 -1.328125q-1.5 -1.34375 -2.171875 -3.234375l-17.90625 -69.20314l2.671875 0l-18.140625 69.093765q-0.78125 2.109375 -2.28125 3.390625q-1.5 1.28125 -3.5 1.28125zm100.13013 0.4375q-9.015625 0 -15.921875 -3.9375q-6.890625 -3.953125 -10.84375 -10.906265q-3.953125 -6.953125 -3.953125 -15.96875q0 -9.125 3.953125 -16.078125q3.953125 -6.953125 10.84375 -10.890625q6.90625 -3.953125 15.921875 -3.953125q8.890625 0 15.78125 3.953125q6.9062805 3.9375 10.8594055 10.890625q3.953125 6.953125 3.953125 16.078125q0 9.015625 -3.90625 15.96875q-3.890625 6.9531403 -10.7969055 10.906265q-6.890625 3.9375 -15.890625 3.9375zm0 -10.0q5.78125 0 10.21875 -2.671875q4.453125 -2.6718903 6.953125 -7.3437653q2.5156555 -4.671875 2.5156555 -10.796875q0 -6.109375 -2.5156555 -10.84375q-2.5 -4.734375 -6.953125 -7.390625q-4.4375 -2.671875 -10.21875 -2.671875q-5.796875 0 -10.25 2.671875q-4.4375 2.65625 -7.0 7.390625q-2.5625 4.734375 -2.5625 10.84375q0 6.125 2.5625 10.796875q2.5625 4.671875 7.0 7.3437653q4.453125 2.671875 10.25 2.671875zm52.953094 -28.48439q0 -6.671875 3.28125 -11.953125q3.28125 -5.296875 8.84375 -8.40625q5.5625 -3.109375 12.234375 -3.109375q6.671875 0 9.953125 2.171875q3.28125 2.15625 2.5 5.171875q-0.328125 1.546875 -1.28125 2.390625q-0.9375 0.828125 -2.171875 1.0625q-1.21875 0.21875 -2.65625 -0.125q-7.125 -1.4375 -12.796875 -0.21875q-5.671875 1.21875 -8.953125 4.5625q-3.28125 3.328125 -3.28125 8.453125l-5.671875 0zm0.109375 38.04689q-2.671875 0 -4.125 -1.390625q-1.4375 -1.390625 -1.4375 -4.171875l0 -49.73439q0 -2.671875 1.4375 -4.109375q1.453125 -1.453125 4.125 -1.453125q2.78125 0 4.171875 1.390625q1.390625 1.390625 1.390625 4.171875l0 49.73439q0 2.671875 -1.390625 4.125q-1.390625 1.4375 -4.171875 1.4375zm59.17682 -22.250015l-6.890625 -7.5625l34.15625 -30.484375q1.671875 -1.5625 3.71875 -1.4375q2.0625 0.109375 3.515625 1.765625q1.546875 1.671875 1.4375 3.671875q-0.109375 2.0 -1.78125 3.5625l-34.15625 30.484375zm-5.21875 22.250015q-2.453125 0 -3.953125 -1.5q-1.5 -1.5 -1.5 -3.953125l0 -75.98439q0 -2.4375 1.5 -3.9375q1.5 -1.515625 3.953125 -1.515625q2.4375 0 3.9375 1.515625q1.515625 1.5 1.515625 3.9375l0 75.98439q0 2.453125 -1.515625 3.953125q-1.5 1.5 -3.9375 1.5zm39.71875 -0.5625q-1.78125 1.453125 -3.953125 1.28125q-2.171875 -0.15625 -3.625 -1.9375l-22.578125 -27.92189l7.78125 -7.34375l23.140625 28.468765q1.453125 1.78125 1.28125 3.84375q-0.15625 2.0625 -2.046875 3.609375zm24.910614 0.5625q-2.453125 0 -4.0625 -1.609375q-1.609375 -1.609375 -1.609375 -4.0625l0 -49.51564q0 -2.546875 1.609375 -4.109375q1.609375 -1.5625 4.0625 -1.5625q2.5625 0 4.109375 1.5625q1.5625 1.5625 1.5625 4.109375l0 49.51564q0 2.453125 -1.5625 4.0625q-1.546875 1.609375 -4.109375 1.609375zm0 -70.750015q-3.0 0 -5.171875 -2.171875q-2.171875 -2.171875 -2.171875 -5.171875q0 -3.0 2.171875 -5.171875q2.171875 -2.171875 5.171875 -2.171875q3.0 0 5.171875 2.171875q2.171875 2.171875 2.171875 5.171875q0 3.0 -2.171875 5.171875q-2.171875 2.171875 -5.171875 2.171875zm78.20685 70.85939q-2.4375 0 -4.0625 -1.609375q-1.609375 -1.609375 -1.609375 -4.0625l0 -27.375015q0 -6.328125 -2.34375 -10.328125q-2.328125 -4.015625 -6.28125 -5.953125q-3.9375 -1.953125 -9.0625 -1.953125q-4.671875 0 -8.453125 1.890625q-3.78125 1.890625 -6.015625 5.0625q-2.21875 3.171875 -2.21875 7.28125l-7.015625 0q0 -7.0 3.390625 -12.5q3.40625 -5.515625 9.296875 -8.734375q5.90625 -3.234375 13.234375 -3.234375q7.6875 0 13.75 3.28125q6.0625 3.28125 9.5625 9.625q3.5 6.34375 3.5 15.5625l0 27.375015q0 2.453125 -1.609375 4.0625q-1.609375 1.609375 -4.0625 1.609375zm-45.71875 0q-2.453125 0 -4.0625 -1.609375q-1.609375 -1.609375 -1.609375 -4.0625l0 -49.625015q0 -2.546875 1.609375 -4.109375q1.609375 -1.5625 4.0625 -1.5625q2.5625 0 4.109375 1.5625q1.5625 1.5625 1.5625 4.109375l0 49.625015q0 2.453125 -1.5625 4.0625q-1.546875 1.609375 -4.109375 1.609375zm95.559875 0.328125q-8.34375 0 -14.75 -3.9375q-6.390625 -3.953125 -10.0625 -10.906265q-3.671814 -6.953125 -3.671814 -15.96875q0 -9.125 3.953064 -16.078125q3.953125 -6.953125 10.84375 -10.890625q6.90625 -3.953125 15.921875 -3.953125q8.890625 0 15.78125 3.953125q6.90625 3.9375 10.859375 10.890625q3.953125 6.953125 3.953125 16.078125l-6.578125 0q0 9.015625 -3.390625 15.96875q-3.390625 6.9531403 -9.296875 10.906265q-5.890625 3.9375 -13.5625 3.9375zm2.0 24.8125q-7.890625 0 -14.796875 -3.109375q-6.890625 -3.109375 -11.671875 -9.125q-1.453125 -1.890625 -1.0625 -3.890625q0.390625 -2.0 2.171875 -3.234375q2.0 -1.328125 4.171875 -0.890625q2.171875 0.453125 3.5 2.234375q3.0 3.78125 7.5625 5.890625q4.5625 2.109375 10.359375 2.109375q5.328125 0 9.828125 -2.5625q4.515625 -2.546875 7.1875 -7.5625q2.671875 -5.0 2.671875 -12.234375l0 -15.79689l3.671875 -9.78125l7.234375 2.328125l0 24.031265q0 8.796875 -3.90625 15.96875q-3.890625 7.171875 -10.84375 11.390625q-6.953125 4.234375 -16.078125 4.234375zm0.234375 -34.8125q5.78125 0 10.21875 -2.671875q4.453125 -2.6718903 6.953125 -7.3437653q2.515625 -4.671875 2.515625 -10.796875q0 -6.109375 -2.515625 -10.84375q-2.5 -4.734375 -6.953125 -7.390625q-4.4375 -2.671875 -10.21875 -2.671875q-5.796875 0 -10.25 2.671875q-4.4375 2.65625 -7.0 7.390625q-2.5625 4.734375 -2.5625 10.84375q0 6.125 2.5625 10.796875q2.5625 4.671875 7.0 7.3437653q4.453125 2.671875 10.25 2.671875zm106.90869 9.5625q-2.453125 0 -4.125 -1.671875q-1.671875 -1.671875 -1.671875 -4.109375l0 -81.10939l11.578125 0l0 81.10939q0 2.4375 -1.671875 4.109375q-1.671875 1.671875 -4.109375 1.671875zm-29.8125 -76.20314q-2.34375 0 -3.84375 -1.5q-1.5 -1.5 -1.5 -3.84375q0 -2.328125 1.5 -3.828125q1.5 -1.515625 3.84375 -1.515625l59.515625 0q2.328125 0 3.828125 1.515625q1.515625 1.5 1.515625 3.828125q0 2.34375 -1.515625 3.84375q-1.5 1.5 -3.828125 1.5l-59.515625 0zm82.204834 76.20314q-2.453125 0 -4.0625 -1.609375q-1.609375 -1.609375 -1.609375 -4.0625l0 -49.51564q0 -2.546875 1.609375 -4.109375q1.609375 -1.5625 4.0625 -1.5625q2.5625 0 4.109375 1.5625q1.5625 1.5625 1.5625 4.109375l0 49.51564q0 2.453125 -1.5625 4.0625q-1.546875 1.609375 -4.109375 1.609375zm0 -70.750015q-3.0 0 -5.171875 -2.171875q-2.171875 -2.171875 -2.171875 -5.171875q0 -3.0 2.171875 -5.171875q2.171875 -2.171875 5.171875 -2.171875q3.0 0 5.171875 2.171875q2.171875 2.171875 2.171875 5.171875q0 3.0 -2.171875 5.171875q-2.171875 2.171875 -5.171875 2.171875zm48.95691 70.750015q-5.5625 0 -10.015625 -2.828125q-4.453125 -2.84375 -7.015625 -7.734375q-2.546875 -4.9062653 -2.546875 -11.01564l0 -53.078125q0 -2.4375 1.546875 -4.0q1.5625 -1.5625 4.015625 -1.5625q2.4375 0 4.0 1.5625q1.5625 1.5625 1.5625 4.0l0 53.078125q0 4.453125 2.4375 7.453125q2.453125 3.0000153 6.015625 3.0000153l3.78125 0q2.0 0 3.390625 1.5625q1.390625 1.546875 1.390625 4.0q0 2.453125 -1.84375 4.015625q-1.828125 1.546875 -4.71875 1.546875l-2.0 0zm-24.703125 -49.062515q-2.328125 0 -3.78125 -1.328125q-1.453125 -1.34375 -1.453125 -3.34375q0 -2.21875 1.453125 -3.546875q1.453125 -1.34375 3.78125 -1.34375l25.703125 0q2.328125 0 3.765625 1.34375q1.453125 1.328125 1.453125 3.546875q0 2.0 -1.453125 3.34375q-1.4375 1.328125 -3.765625 1.328125l-25.703125 0zm61.62683 49.062515q-4.890625 0 -8.671875 -2.671875q-3.78125 -2.671875 -5.90625 -7.28125q-2.109375 -4.6250153 -2.109375 -10.625015l0 -60.75q0 -2.4375 1.5625 -4.0q1.5625 -1.5625 4.0 -1.5625q2.453125 0 4.0 1.5625q1.5625 1.5625 1.5625 4.0l0 60.75q0 4.109375 1.5625 6.78125q1.5625 2.6718903 4.0 2.6718903l2.78125 0q2.234375 0 3.625 1.5625q1.390625 1.546875 1.390625 4.0q0 2.453125 -2.125 4.015625q-2.109375 1.546875 -5.4375 1.546875l-0.234375 0zm44.17798 0.4375q-9.234375 0 -16.421875 -3.9375q-7.171875 -3.953125 -11.234375 -10.906265q-4.0625 -6.953125 -4.0625 -15.96875q0 -9.125 3.84375 -16.078125q3.84375 -6.953125 10.625 -10.890625q6.78125 -3.953125 15.578125 -3.953125q8.671875 0 14.90625 3.84375q6.234375 3.828125 9.515625 10.5625q3.28125 6.734375 3.28125 15.515625q0 2.109375 -1.453125 3.5q-1.4375 1.390625 -3.671875 1.390625l-44.828125 0l0 -8.890625l44.5 0l-4.5625 3.109375q-0.109375 -5.5625 -2.234375 -9.953125q-2.109375 -4.390625 -6.0 -6.953125q-3.890625 -2.5625 -9.453125 -2.5625q-6.34375 0 -10.859375 2.78125q-4.5 2.78125 -6.84375 7.625q-2.328125 4.84375 -2.328125 10.953125q0 6.125 2.78125 10.90625q2.78125 4.78125 7.671875 7.5625153q4.90625 2.78125 11.25 2.78125q3.4375 0 7.046875 -1.28125q3.625 -1.28125 5.859375 -2.9375q1.65625 -1.2343903 3.609375 -1.2812653q1.953125 -0.0625 3.390625 1.15625q1.890625 1.6718903 2.0 3.6875153q0.109375 2.0 -1.78125 3.4375q-3.78125 3.0 -9.40625 4.890625q-5.609375 1.890625 -10.71875 1.890625zm39.039307 25.59375q-2.4375 0 -4.0625 -1.671875q-1.609375 -1.671875 -1.609375 -4.109375q0 -1.453125 0.671875 -2.78125q5.671875 -11.796875 8.734375 -23.921875q3.0625 -12.125015 3.0625 -23.92189q0 -23.921875 -11.6875 -47.609375q-0.671875 -1.109375 -0.78125 -2.890625q0 -2.453125 1.609375 -4.171875q1.625 -1.734375 4.0625 -1.734375q3.671875 0 5.34375 3.90625q6.34375 12.90625 9.453125 26.03125q3.125 13.125 3.125 26.359375q0 13.234375 -3.171875 26.375015q-3.171875 13.125 -9.40625 26.359375q-1.0 2.109375 -2.28125 2.9375q-1.28125 0.84375 -3.0625 0.84375z" fill-rule="nonzero"/><path fill="#000000" fill-opacity="0.0" d="m83.65391 162.64305l833.98425 0" fill-rule="evenodd"/><path stroke="#fff0ff" stroke-width="3.1286089238845145" stroke-linejoin="round" stroke-linecap="butt" d="m83.65391 162.64305l833.98425 0" fill-rule="evenodd"/></g></svg>